<?xml version="1.0" standalone="no"?>
<!DOCTYPE svg PUBLIC "-//W3C//DTD SVG 20010904//EN"
 "http://www.w3.org/TR/2001/REC-SVG-20010904/DTD/svg10.dtd">
<svg version="1.0" xmlns="http://www.w3.org/2000/svg"
 width="800.000000pt" height="800.000000pt" viewBox="0 0 800.000000 800.000000"
 preserveAspectRatio="xMidYMid meet">
<metadata>
Created by potrace 1.14, written by Peter Selinger 2001-2017
</metadata>
<g transform="translate(0.000000,800.000000) scale(0.100000,-0.100000)"
fill="#000000" stroke="none">
<path d="M2775 7013 c-65 -34 -95 -81 -100 -153 -11 -160 184 -249 302 -137
69 65 73 189 8 253 -51 51 -150 69 -210 37z"/>
<path d="M4298 7025 c-2 -2 -16 -5 -33 -8 -229 -36 -476 -214 -584 -420 l-27
-52 -65 -1 c-177 -4 -278 -57 -418 -218 -16 -19 -28 -25 -40 -20 -9 4 -61 7
-116 7 -82 -1 -115 -6 -180 -28 -172 -59 -314 -194 -370 -350 -9 -27 -20 -57
-23 -65 -10 -29 -12 -46 -16 -125 -4 -73 0 -116 19 -200 7 -35 57 -136 88
-180 68 -96 165 -170 282 -215 101 -40 88 -39 1318 -39 753 0 1187 3 1187 9 0
6 9 10 19 10 27 0 138 48 186 81 320 216 362 659 90 934 -52 53 -174 128 -230
141 -47 12 -63 16 -85 20 -14 2 -30 6 -36 8 -6 2 -19 37 -29 78 -9 40 -26 90
-36 111 -11 20 -17 37 -14 37 2 0 -14 30 -36 68 -136 221 -311 348 -565 407
-46 11 -277 19 -286 10z"/>
<path d="M3152 6698 c-7 -7 -12 -8 -12 -2 0 5 -9 -4 -20 -21 -11 -16 -20 -43
-20 -58 0 -39 49 -87 88 -87 89 0 125 133 45 169 -31 14 -66 14 -81 -1z"/>
<path d="M4040 4768 c-95 -25 -172 -86 -218 -173 l-27 -50 -3 -848 -3 -848
-97 2 c-114 2 -150 15 -189 65 l-28 37 -5 296 c-6 333 -7 339 -83 381 -86 49
-202 7 -229 -84 -10 -34 -12 -575 -3 -616 3 -14 7 -29 9 -35 33 -137 123 -248
254 -314 32 -16 74 -32 93 -36 19 -3 43 -8 54 -10 11 -2 38 -4 60 -5 l40 -1
-40 -22 c-54 -30 -135 -89 -135 -99 0 -4 -5 -8 -10 -8 -12 0 -90 -79 -135
-136 -16 -21 -38 -46 -47 -56 -10 -10 -18 -22 -18 -27 0 -5 -4 -11 -8 -13 -12
-4 -93 -141 -125 -212 -51 -109 -61 -188 -43 -355 4 -36 9 -68 12 -73 3 -4 7
-20 9 -35 11 -75 86 -288 134 -383 57 -112 155 -260 216 -329 85 -97 219 -220
325 -301 25 -19 47 -37 50 -40 9 -10 188 -130 194 -130 3 0 30 -16 61 -35 67
-43 411 -220 443 -228 25 -6 29 5 7 23 -33 27 -134 267 -151 357 -10 54 -11
229 -2 288 8 55 24 116 41 155 6 14 11 27 12 30 3 13 72 137 85 153 6 7 24 30
41 52 17 22 74 85 127 141 107 112 115 121 155 182 141 216 183 427 122 609
-34 101 -96 196 -174 267 -19 17 -48 44 -65 59 -37 34 -200 156 -236 176 -14
8 -37 21 -52 28 l-27 14 1 134 1 135 101 1 c119 1 141 4 220 30 135 46 251
164 293 297 25 81 26 92 26 307 0 173 -2 215 -16 240 -42 80 -138 111 -217 70
-28 -14 -73 -63 -79 -86 -2 -8 -5 -102 -7 -209 -2 -203 -8 -236 -47 -279 -34
-36 -64 -44 -174 -46 l-101 -2 0 656 c0 361 -3 671 -7 690 -10 57 -44 120 -88
163 -38 37 -106 77 -147 85 -42 9 -119 10 -150 1z"/>
</g>
</svg>
